<?xml version="1.0" standalone="no"?>
<svg xmlns="http://www.w3.org/2000/svg" width="500" height="500"><defs><clipPath id="clip-path-dot-color"><rect x="25" y="105" width="10" height="10" transform="rotate(0,30,110)"/><rect x="25" y="115" width="10" height="10" transform="rotate(0,30,120)"/><rect x="25" y="135" width="10" height="10" transform="rotate(0,30,140)"/><rect x="25" y="145" width="10" height="10" transform="rotate(0,30,150)"/><rect x="25" y="155" width="10" height="10" transform="rotate(0,30,160)"/><rect x="25" y="165" width="10" height="10" transform="rotate(0,30,170)"/><rect x="25" y="205" width="10" height="10" transform="rotate(0,30,210)"/><rect x="25" y="225" width="10" height="10" transform="rotate(0,30,230)"/><rect x="25" y="235" width="10" height="10" transform="rotate(0,30,240)"/><rect x="25" y="245" width="10" height="10" transform="rotate(0,30,250)"/><rect x="25" y="255" width="10" height="10" transform="rotate(0,30,260)"/><rect x="25" y="285" width="10" height="10" transform="rotate(0,30,290)"/><rect x="25" y="305" width="10" height="10" transform="rotate(0,30,310)"/><rect x="25" y="325" width="10" height="10" transform="rotate(0,30,330)"/><rect x="25" y="385" width="10" height="10" transform="rotate(0,30,390)"/><rect x="35" y="105" width="10" height="10" transform="rotate(0,40,110)"/><rect x="35" y="115" width="10" height="10" transform="rotate(0,40,120)"/><rect x="35" y="125" width="10" height="10" transform="rotate(0,40,130)"/><rect x="35" y="145" width="10" height="10" transform="rotate(0,40,150)"/><rect x="35" y="175" width="10" height="10" transform="rotate(0,40,180)"/><rect x="35" y="225" width="10" height="10" transform="rotate(0,40,230)"/><rect x="35" y="245" width="10" height="10" transform="rotate(0,40,250)"/><rect x="35" y="265" width="10" height="10" transform="rotate(0,40,270)"/><rect x="35" y="285" width="10" height="10" transform="rotate(0,40,290)"/><rect x="35" y="335" width="10" height="10" transform="rotate(0,40,340)"/><rect x="35" y="375" width="10" height="10" transform="rotate(0,40,380)"/><rect x="45" y="115" width="10" height="10" transform="rotate(0,50,120)"/><rect x="45" y="135" width="10" height="10" transform="rotate(0,50,140)"/><rect x="45" y="145" width="10" height="10" transform="rotate(0,50,150)"/><rect x="45" y="155" width="10" height="10" transform="rotate(0,50,160)"/><rect x="45" y="185" width="10" height="10" transform="rotate(0,50,190)"/><rect x="45" y="205" width="10" height="10" transform="rotate(0,50,210)"/><rect x="45" y="225" width="10" height="10" transform="rotate(0,50,230)"/><rect x="45" y="245" width="10" height="10" transform="rotate(0,50,250)"/><rect x="45" y="255" width="10" height="10" transform="rotate(0,50,260)"/><rect x="45" y="295" width="10" height="10" transform="rotate(0,50,300)"/><rect x="45" y="305" width="10" height="10" transform="rotate(0,50,310)"/><rect x="45" y="325" width="10" height="10" transform="rotate(0,50,330)"/><rect x="45" y="335" width="10" height="10" transform="rotate(0,50,340)"/><rect x="45" y="355" width="10" height="10" transform="rotate(0,50,360)"/><rect x="45" y="375" width="10" height="10" transform="rotate(0,50,380)"/><rect x="55" y="115" width="10" height="10" transform="rotate(0,60,120)"/><rect x="55" y="135" width="10" height="10" transform="rotate(0,60,140)"/><rect x="55" y="165" width="10" height="10" transform="rotate(0,60,170)"/><rect x="55" y="175" width="10" height="10" transform="rotate(0,60,180)"/><rect x="55" y="195" width="10" height="10" transform="rotate(0,60,200)"/><rect x="55" y="225" width="10" height="10" transform="rotate(0,60,230)"/><rect x="55" y="255" width="10" height="10" transform="rotate(0,60,260)"/><rect x="55" y="275" width="10" height="10" transform="rotate(0,60,280)"/><rect x="55" y="285" width="10" height="10" transform="rotate(0,60,290)"/><rect x="55" y="295" width="10" height="10" transform="rotate(0,60,300)"/><rect x="55" y="305" width="10" height="10" transform="rotate(0,60,310)"/><rect x="55" y="345" width="10" height="10" transform="rotate(0,60,350)"/><rect x="55" y="375" width="10" height="10" transform="rotate(0,60,380)"/><rect x="55" y="385" width="10" height="10" transform="rotate(0,60,390)"/><rect x="65" y="115" width="10" height="10" transform="rotate(0,70,120)"/><rect x="65" y="135" width="10" height="10" transform="rotate(0,70,140)"/><rect x="65" y="145" width="10" height="10" transform="rotate(0,70,150)"/><rect x="65" y="155" width="10" height="10" transform="rotate(0,70,160)"/><rect x="65" y="165" width="10" height="10" transform="rotate(0,70,170)"/><rect x="65" y="205" width="10" height="10" transform="rotate(0,70,210)"/><rect x="65" y="225" width="10" height="10" transform="rotate(0,70,230)"/><rect x="65" y="235" width="10" height="10" transform="rotate(0,70,240)"/><rect x="65" y="245" width="10" height="10" transform="rotate(0,70,250)"/><rect x="65" y="255" width="10" height="10" transform="rotate(0,70,260)"/><rect x="65" y="265" width="10" height="10" transform="rotate(0,70,270)"/><rect x="65" y="295" width="10" height="10" transform="rotate(0,70,300)"/><rect x="65" y="305" width="10" height="10" transform="rotate(0,70,310)"/><rect x="65" y="325" width="10" height="10" transform="rotate(0,70,330)"/><rect x="65" y="335" width="10" height="10" transform="rotate(0,70,340)"/><rect x="65" y="365" width="10" height="10" transform="rotate(0,70,370)"/><rect x="65" y="375" width="10" height="10" transform="rotate(0,70,380)"/><rect x="65" y="385" width="10" height="10" transform="rotate(0,70,390)"/><rect x="75" y="195" width="10" height="10" transform="rotate(0,80,200)"/><rect x="75" y="205" width="10" height="10" transform="rotate(0,80,210)"/><rect x="75" y="225" width="10" height="10" transform="rotate(0,80,230)"/><rect x="75" y="265" width="10" height="10" transform="rotate(0,80,270)"/><rect x="75" y="275" width="10" height="10" transform="rotate(0,80,280)"/><rect x="75" y="355" width="10" height="10" transform="rotate(0,80,360)"/><rect x="85" y="105" width="10" height="10" transform="rotate(0,90,110)"/><rect x="85" y="125" width="10" height="10" transform="rotate(0,90,130)"/><rect x="85" y="145" width="10" height="10" transform="rotate(0,90,150)"/><rect x="85" y="165" width="10" height="10" transform="rotate(0,90,170)"/><rect x="85" y="185" width="10" height="10" transform="rotate(0,90,190)"/><rect x="85" y="205" width="10" height="10" transform="rotate(0,90,210)"/><rect x="85" y="225" width="10" height="10" transform="rotate(0,90,230)"/><rect x="85" y="245" width="10" height="10" transform="rotate(0,90,250)"/><rect x="85" y="265" width="10" height="10" transform="rotate(0,90,270)"/><rect x="85" y="285" width="10" height="10" transform="rotate(0,90,290)"/><rect x="85" y="305" width="10" height="10" transform="rotate(0,90,310)"/><rect x="85" y="325" width="10" height="10" transform="rotate(0,90,330)"/><rect x="85" y="345" width="10" height="10" transform="rotate(0,90,350)"/><rect x="85" y="365" width="10" height="10" transform="rotate(0,90,370)"/><rect x="85" y="385" width="10" height="10" transform="rotate(0,90,390)"/><rect x="95" y="115" width="10" height="10" transform="rotate(0,100,120)"/><rect x="95" y="145" width="10" height="10" transform="rotate(0,100,150)"/><rect x="95" y="165" width="10" height="10" transform="rotate(0,100,170)"/><rect x="95" y="215" width="10" height="10" transform="rotate(0,100,220)"/><rect x="95" y="225" width="10" height="10" transform="rotate(0,100,230)"/><rect x="95" y="265" width="10" height="10" transform="rotate(0,100,270)"/><rect x="95" y="275" width="10" height="10" transform="rotate(0,100,280)"/><rect x="95" y="295" width="10" height="10" transform="rotate(0,100,300)"/><rect x="95" y="305" width="10" height="10" transform="rotate(0,100,310)"/><rect x="95" y="325" width="10" height="10" transform="rotate(0,100,330)"/><rect x="95" y="345" width="10" height="10" transform="rotate(0,100,350)"/><rect x="95" y="365" width="10" height="10" transform="rotate(0,100,370)"/><rect x="95" y="375" width="10" height="10" transform="rotate(0,100,380)"/><rect x="95" y="385" width="10" height="10" transform="rotate(0,100,390)"/><rect x="105" y="35" width="10" height="10" transform="rotate(0,110,40)"/><rect x="105" y="85" width="10" height="10" transform="rotate(0,110,90)"/><rect x="105" y="95" width="10" height="10" transform="rotate(0,110,100)"/><rect x="105" y="105" width="10" height="10" transform="rotate(0,110,110)"/><rect x="105" y="135" width="10" height="10" transform="rotate(0,110,140)"/><rect x="105" y="145" width="10" height="10" transform="rotate(0,110,150)"/><rect x="105" y="165" width="10" height="10" transform="rotate(0,110,170)"/><rect x="105" y="195" width="10" height="10" transform="rotate(0,110,200)"/><rect x="105" y="205" width="10" height="10" transform="rotate(0,110,210)"/><rect x="105" y="225" width="10" height="10" transform="rotate(0,110,230)"/><rect x="105" y="235" width="10" height="10" transform="rotate(0,110,240)"/><rect x="105" y="245" width="10" height="10" transform="rotate(0,110,250)"/><rect x="105" y="255" width="10" height="10" transform="rotate(0,110,260)"/><rect x="105" y="265" width="10" height="10" transform="rotate(0,110,270)"/><rect x="105" y="315" width="10" height="10" transform="rotate(0,110,320)"/><rect x="105" y="325" width="10" height="10" transform="rotate(0,110,330)"/><rect x="105" y="375" width="10" height="10" transform="rotate(0,110,380)"/><rect x="105" y="395" width="10" height="10" transform="rotate(0,110,400)"/><rect x="105" y="455" width="10" height="10" transform="rotate(0,110,460)"/><rect x="105" y="465" width="10" height="10" transform="rotate(0,110,470)"/><rect x="115" y="25" width="10" height="10" transform="rotate(0,120,30)"/><rect x="115" y="35" width="10" height="10" transform="rotate(0,120,40)"/><rect x="115" y="95" width="10" height="10" transform="rotate(0,120,100)"/><rect x="115" y="135" width="10" height="10" transform="rotate(0,120,140)"/><rect x="115" y="145" width="10" height="10" transform="rotate(0,120,150)"/><rect x="115" y="195" width="10" height="10" transform="rotate(0,120,200)"/><rect x="115" y="215" width="10" height="10" transform="rotate(0,120,220)"/><rect x="115" y="235" width="10" height="10" transform="rotate(0,120,240)"/><rect x="115" y="245" width="10" height="10" transform="rotate(0,120,250)"/><rect x="115" y="255" width="10" height="10" transform="rotate(0,120,260)"/><rect x="115" y="275" width="10" height="10" transform="rotate(0,120,280)"/><rect x="115" y="285" width="10" height="10" transform="rotate(0,120,290)"/><rect x="115" y="295" width="10" height="10" transform="rotate(0,120,300)"/><rect x="115" y="305" width="10" height="10" transform="rotate(0,120,310)"/><rect x="115" y="315" width="10" height="10" transform="rotate(0,120,320)"/><rect x="115" y="325" width="10" height="10" transform="rotate(0,120,330)"/><rect x="115" y="335" width="10" height="10" transform="rotate(0,120,340)"/><rect x="115" y="345" width="10" height="10" transform="rotate(0,120,350)"/><rect x="115" y="355" width="10" height="10" transform="rotate(0,120,360)"/><rect x="115" y="365" width="10" height="10" transform="rotate(0,120,370)"/><rect x="115" y="375" width="10" height="10" transform="rotate(0,120,380)"/><rect x="115" y="385" width="10" height="10" transform="rotate(0,120,390)"/><rect x="115" y="395" width="10" height="10" transform="rotate(0,120,400)"/><rect x="115" y="405" width="10" height="10" transform="rotate(0,120,410)"/><rect x="115" y="425" width="10" height="10" transform="rotate(0,120,430)"/><rect x="115" y="435" width="10" height="10" transform="rotate(0,120,440)"/><rect x="125" y="25" width="10" height="10" transform="rotate(0,130,30)"/><rect x="125" y="35" width="10" height="10" transform="rotate(0,130,40)"/><rect x="125" y="75" width="10" height="10" transform="rotate(0,130,80)"/><rect x="125" y="85" width="10" height="10" transform="rotate(0,130,90)"/><rect x="125" y="115" width="10" height="10" transform="rotate(0,130,120)"/><rect x="125" y="135" width="10" height="10" transform="rotate(0,130,140)"/><rect x="125" y="145" width="10" height="10" transform="rotate(0,130,150)"/><rect x="125" y="155" width="10" height="10" transform="rotate(0,130,160)"/><rect x="125" y="205" width="10" height="10" transform="rotate(0,130,210)"/><rect x="125" y="225" width="10" height="10" transform="rotate(0,130,230)"/><rect x="125" y="245" width="10" height="10" transform="rotate(0,130,250)"/><rect x="125" y="255" width="10" height="10" transform="rotate(0,130,260)"/><rect x="125" y="275" width="10" height="10" transform="rotate(0,130,280)"/><rect x="125" y="285" width="10" height="10" transform="rotate(0,130,290)"/><rect x="125" y="315" width="10" height="10" transform="rotate(0,130,320)"/><rect x="125" y="355" width="10" height="10" transform="rotate(0,130,360)"/><rect x="125" y="365" width="10" height="10" transform="rotate(0,130,370)"/><rect x="125" y="395" width="10" height="10" transform="rotate(0,130,400)"/><rect x="125" y="405" width="10" height="10" transform="rotate(0,130,410)"/><rect x="125" y="435" width="10" height="10" transform="rotate(0,130,440)"/><rect x="125" y="455" width="10" height="10" transform="rotate(0,130,460)"/><rect x="135" y="55" width="10" height="10" transform="rotate(0,140,60)"/><rect x="135" y="95" width="10" height="10" transform="rotate(0,140,100)"/><rect x="135" y="105" width="10" height="10" transform="rotate(0,140,110)"/><rect x="135" y="115" width="10" height="10" transform="rotate(0,140,120)"/><rect x="135" y="125" width="10" height="10" transform="rotate(0,140,130)"/><rect x="135" y="155" width="10" height="10" transform="rotate(0,140,160)"/><rect x="135" y="175" width="10" height="10" transform="rotate(0,140,180)"/><rect x="135" y="185" width="10" height="10" transform="rotate(0,140,190)"/><rect x="135" y="195" width="10" height="10" transform="rotate(0,140,200)"/><rect x="135" y="225" width="10" height="10" transform="rotate(0,140,230)"/><rect x="135" y="235" width="10" height="10" transform="rotate(0,140,240)"/><rect x="135" y="245" width="10" height="10" transform="rotate(0,140,250)"/><rect x="135" y="255" width="10" height="10" transform="rotate(0,140,260)"/><rect x="135" y="265" width="10" height="10" transform="rotate(0,140,270)"/><rect x="135" y="275" width="10" height="10" transform="rotate(0,140,280)"/><rect x="135" y="295" width="10" height="10" transform="rotate(0,140,300)"/><rect x="135" y="305" width="10" height="10" transform="rotate(0,140,310)"/><rect x="135" y="315" width="10" height="10" transform="rotate(0,140,320)"/><rect x="135" y="345" width="10" height="10" transform="rotate(0,140,350)"/><rect x="135" y="355" width="10" height="10" transform="rotate(0,140,360)"/><rect x="135" y="375" width="10" height="10" transform="rotate(0,140,380)"/><rect x="135" y="395" width="10" height="10" transform="rotate(0,140,400)"/><rect x="135" y="405" width="10" height="10" transform="rotate(0,140,410)"/><rect x="135" y="415" width="10" height="10" transform="rotate(0,140,420)"/><rect x="135" y="425" width="10" height="10" transform="rotate(0,140,430)"/><rect x="135" y="435" width="10" height="10" transform="rotate(0,140,440)"/><rect x="135" y="445" width="10" height="10" transform="rotate(0,140,450)"/><rect x="135" y="455" width="10" height="10" transform="rotate(0,140,460)"/><rect x="145" y="35" width="10" height="10" transform="rotate(0,150,40)"/><rect x="145" y="65" width="10" height="10" transform="rotate(0,150,70)"/><rect x="145" y="85" width="10" height="10" transform="rotate(0,150,90)"/><rect x="145" y="95" width="10" height="10" transform="rotate(0,150,100)"/><rect x="145" y="105" width="10" height="10" transform="rotate(0,150,110)"/><rect x="145" y="115" width="10" height="10" transform="rotate(0,150,120)"/><rect x="145" y="135" width="10" height="10" transform="rotate(0,150,140)"/><rect x="145" y="175" width="10" height="10" transform="rotate(0,150,180)"/><rect x="145" y="185" width="10" height="10" transform="rotate(0,150,190)"/><rect x="145" y="215" width="10" height="10" transform="rotate(0,150,220)"/><rect x="145" y="225" width="10" height="10" transform="rotate(0,150,230)"/><rect x="145" y="275" width="10" height="10" transform="rotate(0,150,280)"/><rect x="145" y="285" width="10" height="10" transform="rotate(0,150,290)"/><rect x="145" y="305" width="10" height="10" transform="rotate(0,150,310)"/><rect x="145" y="325" width="10" height="10" transform="rotate(0,150,330)"/><rect x="145" y="335" width="10" height="10" transform="rotate(0,150,340)"/><rect x="145" y="345" width="10" height="10" transform="rotate(0,150,350)"/><rect x="145" y="355" width="10" height="10" transform="rotate(0,150,360)"/><rect x="145" y="415" width="10" height="10" transform="rotate(0,150,420)"/><rect x="145" y="425" width="10" height="10" transform="rotate(0,150,430)"/><rect x="145" y="435" width="10" height="10" transform="rotate(0,150,440)"/><rect x="145" y="455" width="10" height="10" transform="rotate(0,150,460)"/><rect x="145" y="465" width="10" height="10" transform="rotate(0,150,470)"/><rect x="155" y="95" width="10" height="10" transform="rotate(0,160,100)"/><rect x="155" y="125" width="10" height="10" transform="rotate(0,160,130)"/><rect x="155" y="135" width="10" height="10" transform="rotate(0,160,140)"/><rect x="155" y="145" width="10" height="10" transform="rotate(0,160,150)"/><rect x="155" y="165" width="10" height="10" transform="rotate(0,160,170)"/><rect x="155" y="175" width="10" height="10" transform="rotate(0,160,180)"/><rect x="155" y="235" width="10" height="10" transform="rotate(0,160,240)"/><rect x="155" y="245" width="10" height="10" transform="rotate(0,160,250)"/><rect x="155" y="315" width="10" height="10" transform="rotate(0,160,320)"/><rect x="155" y="325" width="10" height="10" transform="rotate(0,160,330)"/><rect x="155" y="345" width="10" height="10" transform="rotate(0,160,350)"/><rect x="155" y="375" width="10" height="10" transform="rotate(0,160,380)"/><rect x="155" y="385" width="10" height="10" transform="rotate(0,160,390)"/><rect x="155" y="395" width="10" height="10" transform="rotate(0,160,400)"/><rect x="155" y="415" width="10" height="10" transform="rotate(0,160,420)"/><rect x="155" y="435" width="10" height="10" transform="rotate(0,160,440)"/><rect x="155" y="445" width="10" height="10" transform="rotate(0,160,450)"/><rect x="155" y="465" width="10" height="10" transform="rotate(0,160,470)"/><rect x="165" y="25" width="10" height="10" transform="rotate(0,170,30)"/><rect x="165" y="35" width="10" height="10" transform="rotate(0,170,40)"/><rect x="165" y="45" width="10" height="10" transform="rotate(0,170,50)"/><rect x="165" y="55" width="10" height="10" transform="rotate(0,170,60)"/><rect x="165" y="75" width="10" height="10" transform="rotate(0,170,80)"/><rect x="165" y="85" width="10" height="10" transform="rotate(0,170,90)"/><rect x="165" y="95" width="10" height="10" transform="rotate(0,170,100)"/><rect x="165" y="145" width="10" height="10" transform="rotate(0,170,150)"/><rect x="165" y="165" width="10" height="10" transform="rotate(0,170,170)"/><rect x="165" y="195" width="10" height="10" transform="rotate(0,170,200)"/><rect x="165" y="215" width="10" height="10" transform="rotate(0,170,220)"/><rect x="165" y="235" width="10" height="10" transform="rotate(0,170,240)"/><rect x="165" y="245" width="10" height="10" transform="rotate(0,170,250)"/><rect x="165" y="255" width="10" height="10" transform="rotate(0,170,260)"/><rect x="165" y="265" width="10" height="10" transform="rotate(0,170,270)"/><rect x="165" y="285" width="10" height="10" transform="rotate(0,170,290)"/><rect x="165" y="365" width="10" height="10" transform="rotate(0,170,370)"/><rect x="165" y="375" width="10" height="10" transform="rotate(0,170,380)"/><rect x="165" y="405" width="10" height="10" transform="rotate(0,170,410)"/><rect x="165" y="415" width="10" height="10" transform="rotate(0,170,420)"/><rect x="165" y="425" width="10" height="10" transform="rotate(0,170,430)"/><rect x="165" y="445" width="10" height="10" transform="rotate(0,170,450)"/><rect x="175" y="35" width="10" height="10" transform="rotate(0,180,40)"/><rect x="175" y="45" width="10" height="10" transform="rotate(0,180,50)"/><rect x="175" y="55" width="10" height="10" transform="rotate(0,180,60)"/><rect x="175" y="65" width="10" height="10" transform="rotate(0,180,70)"/><rect x="175" y="75" width="10" height="10" transform="rotate(0,180,80)"/><rect x="175" y="105" width="10" height="10" transform="rotate(0,180,110)"/><rect x="175" y="175" width="10" height="10" transform="rotate(0,180,180)"/><rect x="175" y="185" width="10" height="10" transform="rotate(0,180,190)"/><rect x="175" y="235" width="10" height="10" transform="rotate(0,180,240)"/><rect x="175" y="255" width="10" height="10" transform="rotate(0,180,260)"/><rect x="175" y="275" width="10" height="10" transform="rotate(0,180,280)"/><rect x="175" y="285" width="10" height="10" transform="rotate(0,180,290)"/><rect x="175" y="295" width="10" height="10" transform="rotate(0,180,300)"/><rect x="175" y="315" width="10" height="10" transform="rotate(0,180,320)"/><rect x="175" y="375" width="10" height="10" transform="rotate(0,180,380)"/><rect x="175" y="395" width="10" height="10" transform="rotate(0,180,400)"/><rect x="175" y="415" width="10" height="10" transform="rotate(0,180,420)"/><rect x="175" y="435" width="10" height="10" transform="rotate(0,180,440)"/><rect x="175" y="445" width="10" height="10" transform="rotate(0,180,450)"/><rect x="185" y="45" width="10" height="10" transform="rotate(0,190,50)"/><rect x="185" y="55" width="10" height="10" transform="rotate(0,190,60)"/><rect x="185" y="65" width="10" height="10" transform="rotate(0,190,70)"/><rect x="185" y="75" width="10" height="10" transform="rotate(0,190,80)"/><rect x="185" y="85" width="10" height="10" transform="rotate(0,190,90)"/><rect x="185" y="105" width="10" height="10" transform="rotate(0,190,110)"/><rect x="185" y="115" width="10" height="10" transform="rotate(0,190,120)"/><rect x="185" y="145" width="10" height="10" transform="rotate(0,190,150)"/><rect x="185" y="175" width="10" height="10" transform="rotate(0,190,180)"/><rect x="185" y="185" width="10" height="10" transform="rotate(0,190,190)"/><rect x="185" y="195" width="10" height="10" transform="rotate(0,190,200)"/><rect x="185" y="215" width="10" height="10" transform="rotate(0,190,220)"/><rect x="185" y="225" width="10" height="10" transform="rotate(0,190,230)"/><rect x="185" y="235" width="10" height="10" transform="rotate(0,190,240)"/><rect x="185" y="245" width="10" height="10" transform="rotate(0,190,250)"/><rect x="185" y="265" width="10" height="10" transform="rotate(0,190,270)"/><rect x="185" y="285" width="10" height="10" transform="rotate(0,190,290)"/><rect x="185" y="315" width="10" height="10" transform="rotate(0,190,320)"/><rect x="185" y="325" width="10" height="10" transform="rotate(0,190,330)"/><rect x="185" y="335" width="10" height="10" transform="rotate(0,190,340)"/><rect x="185" y="355" width="10" height="10" transform="rotate(0,190,360)"/><rect x="185" y="365" width="10" height="10" transform="rotate(0,190,370)"/><rect x="185" y="375" width="10" height="10" transform="rotate(0,190,380)"/><rect x="185" y="395" width="10" height="10" transform="rotate(0,190,400)"/><rect x="185" y="415" width="10" height="10" transform="rotate(0,190,420)"/><rect x="195" y="55" width="10" height="10" transform="rotate(0,200,60)"/><rect x="195" y="75" width="10" height="10" transform="rotate(0,200,80)"/><rect x="195" y="95" width="10" height="10" transform="rotate(0,200,100)"/><rect x="195" y="105" width="10" height="10" transform="rotate(0,200,110)"/><rect x="195" y="115" width="10" height="10" transform="rotate(0,200,120)"/><rect x="195" y="125" width="10" height="10" transform="rotate(0,200,130)"/><rect x="195" y="145" width="10" height="10" transform="rotate(0,200,150)"/><rect x="195" y="155" width="10" height="10" transform="rotate(0,200,160)"/><rect x="195" y="165" width="10" height="10" transform="rotate(0,200,170)"/><rect x="195" y="195" width="10" height="10" transform="rotate(0,200,200)"/><rect x="195" y="205" width="10" height="10" transform="rotate(0,200,210)"/><rect x="195" y="215" width="10" height="10" transform="rotate(0,200,220)"/><rect x="195" y="235" width="10" height="10" transform="rotate(0,200,240)"/><rect x="195" y="245" width="10" height="10" transform="rotate(0,200,250)"/><rect x="195" y="255" width="10" height="10" transform="rotate(0,200,260)"/><rect x="195" y="265" width="10" height="10" transform="rotate(0,200,270)"/><rect x="195" y="325" width="10" height="10" transform="rotate(0,200,330)"/><rect x="195" y="335" width="10" height="10" transform="rotate(0,200,340)"/><rect x="195" y="345" width="10" height="10" transform="rotate(0,200,350)"/><rect x="195" y="385" width="10" height="10" transform="rotate(0,200,390)"/><rect x="195" y="395" width="10" height="10" transform="rotate(0,200,400)"/><rect x="195" y="415" width="10" height="10" transform="rotate(0,200,420)"/><rect x="195" y="445" width="10" height="10" transform="rotate(0,200,450)"/><rect x="195" y="465" width="10" height="10" transform="rotate(0,200,470)"/><rect x="205" y="35" width="10" height="10" transform="rotate(0,210,40)"/><rect x="205" y="45" width="10" height="10" transform="rotate(0,210,50)"/><rect x="205" y="55" width="10" height="10" transform="rotate(0,210,60)"/><rect x="205" y="85" width="10" height="10" transform="rotate(0,210,90)"/><rect x="205" y="95" width="10" height="10" transform="rotate(0,210,100)"/><rect x="205" y="115" width="10" height="10" transform="rotate(0,210,120)"/><rect x="205" y="145" width="10" height="10" transform="rotate(0,210,150)"/><rect x="205" y="195" width="10" height="10" transform="rotate(0,210,200)"/><rect x="205" y="205" width="10" height="10" transform="rotate(0,210,210)"/><rect x="205" y="215" width="10" height="10" transform="rotate(0,210,220)"/><rect x="205" y="245" width="10" height="10" transform="rotate(0,210,250)"/><rect x="205" y="255" width="10" height="10" transform="rotate(0,210,260)"/><rect x="205" y="265" width="10" height="10" transform="rotate(0,210,270)"/><rect x="205" y="295" width="10" height="10" transform="rotate(0,210,300)"/><rect x="205" y="355" width="10" height="10" transform="rotate(0,210,360)"/><rect x="205" y="395" width="10" height="10" transform="rotate(0,210,400)"/><rect x="205" y="415" width="10" height="10" transform="rotate(0,210,420)"/><rect x="205" y="425" width="10" height="10" transform="rotate(0,210,430)"/><rect x="205" y="465" width="10" height="10" transform="rotate(0,210,470)"/><rect x="215" y="25" width="10" height="10" transform="rotate(0,220,30)"/><rect x="215" y="45" width="10" height="10" transform="rotate(0,220,50)"/><rect x="215" y="55" width="10" height="10" transform="rotate(0,220,60)"/><rect x="215" y="75" width="10" height="10" transform="rotate(0,220,80)"/><rect x="215" y="95" width="10" height="10" transform="rotate(0,220,100)"/><rect x="215" y="105" width="10" height="10" transform="rotate(0,220,110)"/><rect x="215" y="135" width="10" height="10" transform="rotate(0,220,140)"/><rect x="215" y="145" width="10" height="10" transform="rotate(0,220,150)"/><rect x="215" y="165" width="10" height="10" transform="rotate(0,220,170)"/><rect x="215" y="185" width="10" height="10" transform="rotate(0,220,190)"/><rect x="215" y="205" width="10" height="10" transform="rotate(0,220,210)"/><rect x="215" y="225" width="10" height="10" transform="rotate(0,220,230)"/><rect x="215" y="235" width="10" height="10" transform="rotate(0,220,240)"/><rect x="215" y="245" width="10" height="10" transform="rotate(0,220,250)"/><rect x="215" y="265" width="10" height="10" transform="rotate(0,220,270)"/><rect x="215" y="275" width="10" height="10" transform="rotate(0,220,280)"/><rect x="215" y="285" width="10" height="10" transform="rotate(0,220,290)"/><rect x="215" y="315" width="10" height="10" transform="rotate(0,220,320)"/><rect x="215" y="335" width="10" height="10" transform="rotate(0,220,340)"/><rect x="215" y="345" width="10" height="10" transform="rotate(0,220,350)"/><rect x="215" y="355" width="10" height="10" transform="rotate(0,220,360)"/><rect x="215" y="385" width="10" height="10" transform="rotate(0,220,390)"/><rect x="215" y="405" width="10" height="10" transform="rotate(0,220,410)"/><rect x="215" y="415" width="10" height="10" transform="rotate(0,220,420)"/><rect x="215" y="425" width="10" height="10" transform="rotate(0,220,430)"/><rect x="215" y="435" width="10" height="10" transform="rotate(0,220,440)"/><rect x="215" y="445" width="10" height="10" transform="rotate(0,220,450)"/><rect x="215" y="455" width="10" height="10" transform="rotate(0,220,460)"/><rect x="215" y="465" width="10" height="10" transform="rotate(0,220,470)"/><rect x="225" y="35" width="10" height="10" transform="rotate(0,230,40)"/><rect x="225" y="45" width="10" height="10" transform="rotate(0,230,50)"/><rect x="225" y="55" width="10" height="10" transform="rotate(0,230,60)"/><rect x="225" y="65" width="10" height="10" transform="rotate(0,230,70)"/><rect x="225" y="75" width="10" height="10" transform="rotate(0,230,80)"/><rect x="225" y="85" width="10" height="10" transform="rotate(0,230,90)"/><rect x="225" y="95" width="10" height="10" transform="rotate(0,230,100)"/><rect x="225" y="105" width="10" height="10" transform="rotate(0,230,110)"/><rect x="225" y="115" width="10" height="10" transform="rotate(0,230,120)"/><rect x="225" y="135" width="10" height="10" transform="rotate(0,230,140)"/><rect x="225" y="145" width="10" height="10" transform="rotate(0,230,150)"/><rect x="225" y="155" width="10" height="10" transform="rotate(0,230,160)"/><rect x="225" y="215" width="10" height="10" transform="rotate(0,230,220)"/><rect x="225" y="225" width="10" height="10" transform="rotate(0,230,230)"/><rect x="225" y="235" width="10" height="10" transform="rotate(0,230,240)"/><rect x="225" y="245" width="10" height="10" transform="rotate(0,230,250)"/><rect x="225" y="255" width="10" height="10" transform="rotate(0,230,260)"/><rect x="225" y="265" width="10" height="10" transform="rotate(0,230,270)"/><rect x="225" y="285" width="10" height="10" transform="rotate(0,230,290)"/><rect x="225" y="305" width="10" height="10" transform="rotate(0,230,310)"/><rect x="225" y="335" width="10" height="10" transform="rotate(0,230,340)"/><rect x="225" y="375" width="10" height="10" transform="rotate(0,230,380)"/><rect x="225" y="385" width="10" height="10" transform="rotate(0,230,390)"/><rect x="225" y="395" width="10" height="10" transform="rotate(0,230,400)"/><rect x="225" y="405" width="10" height="10" transform="rotate(0,230,410)"/><rect x="225" y="415" width="10" height="10" transform="rotate(0,230,420)"/><rect x="225" y="425" width="10" height="10" transform="rotate(0,230,430)"/><rect x="225" y="455" width="10" height="10" transform="rotate(0,230,460)"/><rect x="225" y="465" width="10" height="10" transform="rotate(0,230,470)"/><rect x="235" y="35" width="10" height="10" transform="rotate(0,240,40)"/><rect x="235" y="55" width="10" height="10" transform="rotate(0,240,60)"/><rect x="235" y="65" width="10" height="10" transform="rotate(0,240,70)"/><rect x="235" y="105" width="10" height="10" transform="rotate(0,240,110)"/><rect x="235" y="115" width="10" height="10" transform="rotate(0,240,120)"/><rect x="235" y="125" width="10" height="10" transform="rotate(0,240,130)"/><rect x="235" y="135" width="10" height="10" transform="rotate(0,240,140)"/><rect x="235" y="145" width="10" height="10" transform="rotate(0,240,150)"/><rect x="235" y="155" width="10" height="10" transform="rotate(0,240,160)"/><rect x="235" y="165" width="10" height="10" transform="rotate(0,240,170)"/><rect x="235" y="225" width="10" height="10" transform="rotate(0,240,230)"/><rect x="235" y="265" width="10" height="10" transform="rotate(0,240,270)"/><rect x="235" y="275" width="10" height="10" transform="rotate(0,240,280)"/><rect x="235" y="315" width="10" height="10" transform="rotate(0,240,320)"/><rect x="235" y="335" width="10" height="10" transform="rotate(0,240,340)"/><rect x="235" y="345" width="10" height="10" transform="rotate(0,240,350)"/><rect x="235" y="355" width="10" height="10" transform="rotate(0,240,360)"/><rect x="235" y="365" width="10" height="10" transform="rotate(0,240,370)"/><rect x="235" y="375" width="10" height="10" transform="rotate(0,240,380)"/><rect x="235" y="385" width="10" height="10" transform="rotate(0,240,390)"/><rect x="235" y="425" width="10" height="10" transform="rotate(0,240,430)"/><rect x="235" y="455" width="10" height="10" transform="rotate(0,240,460)"/><rect x="245" y="35" width="10" height="10" transform="rotate(0,250,40)"/><rect x="245" y="45" width="10" height="10" transform="rotate(0,250,50)"/><rect x="245" y="65" width="10" height="10" transform="rotate(0,250,70)"/><rect x="245" y="85" width="10" height="10" transform="rotate(0,250,90)"/><rect x="245" y="105" width="10" height="10" transform="rotate(0,250,110)"/><rect x="245" y="115" width="10" height="10" transform="rotate(0,250,120)"/><rect x="245" y="135" width="10" height="10" transform="rotate(0,250,140)"/><rect x="245" y="155" width="10" height="10" transform="rotate(0,250,160)"/><rect x="245" y="165" width="10" height="10" transform="rotate(0,250,170)"/><rect x="245" y="195" width="10" height="10" transform="rotate(0,250,200)"/><rect x="245" y="225" width="10" height="10" transform="rotate(0,250,230)"/><rect x="245" y="245" width="10" height="10" transform="rotate(0,250,250)"/><rect x="245" y="265" width="10" height="10" transform="rotate(0,250,270)"/><rect x="245" y="305" width="10" height="10" transform="rotate(0,250,310)"/><rect x="245" y="325" width="10" height="10" transform="rotate(0,250,330)"/><rect x="245" y="335" width="10" height="10" transform="rotate(0,250,340)"/><rect x="245" y="365" width="10" height="10" transform="rotate(0,250,370)"/><rect x="245" y="385" width="10" height="10" transform="rotate(0,250,390)"/><rect x="245" y="405" width="10" height="10" transform="rotate(0,250,410)"/><rect x="245" y="425" width="10" height="10" transform="rotate(0,250,430)"/><rect x="245" y="445" width="10" height="10" transform="rotate(0,250,450)"/><rect x="255" y="35" width="10" height="10" transform="rotate(0,260,40)"/><rect x="255" y="45" width="10" height="10" transform="rotate(0,260,50)"/><rect x="255" y="55" width="10" height="10" transform="rotate(0,260,60)"/><rect x="255" y="65" width="10" height="10" transform="rotate(0,260,70)"/><rect x="255" y="105" width="10" height="10" transform="rotate(0,260,110)"/><rect x="255" y="125" width="10" height="10" transform="rotate(0,260,130)"/><rect x="255" y="155" width="10" height="10" transform="rotate(0,260,160)"/><rect x="255" y="165" width="10" height="10" transform="rotate(0,260,170)"/><rect x="255" y="185" width="10" height="10" transform="rotate(0,260,190)"/><rect x="255" y="195" width="10" height="10" transform="rotate(0,260,200)"/><rect x="255" y="225" width="10" height="10" transform="rotate(0,260,230)"/><rect x="255" y="265" width="10" height="10" transform="rotate(0,260,270)"/><rect x="255" y="305" width="10" height="10" transform="rotate(0,260,310)"/><rect x="255" y="345" width="10" height="10" transform="rotate(0,260,350)"/><rect x="255" y="355" width="10" height="10" transform="rotate(0,260,360)"/><rect x="255" y="385" width="10" height="10" transform="rotate(0,260,390)"/><rect x="255" y="425" width="10" height="10" transform="rotate(0,260,430)"/><rect x="255" y="435" width="10" height="10" transform="rotate(0,260,440)"/><rect x="255" y="445" width="10" height="10" transform="rotate(0,260,450)"/><rect x="255" y="465" width="10" height="10" transform="rotate(0,260,470)"/><rect x="265" y="25" width="10" height="10" transform="rotate(0,270,30)"/><rect x="265" y="45" width="10" height="10" transform="rotate(0,270,50)"/><rect x="265" y="65" width="10" height="10" transform="rotate(0,270,70)"/><rect x="265" y="75" width="10" height="10" transform="rotate(0,270,80)"/><rect x="265" y="85" width="10" height="10" transform="rotate(0,270,90)"/><rect x="265" y="95" width="10" height="10" transform="rotate(0,270,100)"/><rect x="265" y="105" width="10" height="10" transform="rotate(0,270,110)"/><rect x="265" y="115" width="10" height="10" transform="rotate(0,270,120)"/><rect x="265" y="155" width="10" height="10" transform="rotate(0,270,160)"/><rect x="265" y="175" width="10" height="10" transform="rotate(0,270,180)"/><rect x="265" y="185" width="10" height="10" transform="rotate(0,270,190)"/><rect x="265" y="195" width="10" height="10" transform="rotate(0,270,200)"/><rect x="265" y="205" width="10" height="10" transform="rotate(0,270,210)"/><rect x="265" y="215" width="10" height="10" transform="rotate(0,270,220)"/><rect x="265" y="225" width="10" height="10" transform="rotate(0,270,230)"/><rect x="265" y="235" width="10" height="10" transform="rotate(0,270,240)"/><rect x="265" y="245" width="10" height="10" transform="rotate(0,270,250)"/><rect x="265" y="255" width="10" height="10" transform="rotate(0,270,260)"/><rect x="265" y="265" width="10" height="10" transform="rotate(0,270,270)"/><rect x="265" y="275" width="10" height="10" transform="rotate(0,270,280)"/><rect x="265" y="285" width="10" height="10" transform="rotate(0,270,290)"/><rect x="265" y="305" width="10" height="10" transform="rotate(0,270,310)"/><rect x="265" y="325" width="10" height="10" transform="rotate(0,270,330)"/><rect x="265" y="345" width="10" height="10" transform="rotate(0,270,350)"/><rect x="265" y="355" width="10" height="10" transform="rotate(0,270,360)"/><rect x="265" y="365" width="10" height="10" transform="rotate(0,270,370)"/><rect x="265" y="375" width="10" height="10" transform="rotate(0,270,380)"/><rect x="265" y="385" width="10" height="10" transform="rotate(0,270,390)"/><rect x="265" y="395" width="10" height="10" transform="rotate(0,270,400)"/><rect x="265" y="405" width="10" height="10" transform="rotate(0,270,410)"/><rect x="265" y="415" width="10" height="10" transform="rotate(0,270,420)"/><rect x="265" y="425" width="10" height="10" transform="rotate(0,270,430)"/><rect x="265" y="465" width="10" height="10" transform="rotate(0,270,470)"/><rect x="275" y="25" width="10" height="10" transform="rotate(0,280,30)"/><rect x="275" y="35" width="10" height="10" transform="rotate(0,280,40)"/><rect x="275" y="45" width="10" height="10" transform="rotate(0,280,50)"/><rect x="275" y="55" width="10" height="10" transform="rotate(0,280,60)"/><rect x="275" y="65" width="10" height="10" transform="rotate(0,280,70)"/><rect x="275" y="95" width="10" height="10" transform="rotate(0,280,100)"/><rect x="275" y="135" width="10" height="10" transform="rotate(0,280,140)"/><rect x="275" y="155" width="10" height="10" transform="rotate(0,280,160)"/><rect x="275" y="175" width="10" height="10" transform="rotate(0,280,180)"/><rect x="275" y="195" width="10" height="10" transform="rotate(0,280,200)"/><rect x="275" y="215" width="10" height="10" transform="rotate(0,280,220)"/><rect x="275" y="255" width="10" height="10" transform="rotate(0,280,260)"/><rect x="275" y="275" width="10" height="10" transform="rotate(0,280,280)"/><rect x="275" y="305" width="10" height="10" transform="rotate(0,280,310)"/><rect x="275" y="315" width="10" height="10" transform="rotate(0,280,320)"/><rect x="275" y="325" width="10" height="10" transform="rotate(0,280,330)"/><rect x="275" y="335" width="10" height="10" transform="rotate(0,280,340)"/><rect x="275" y="345" width="10" height="10" transform="rotate(0,280,350)"/><rect x="275" y="355" width="10" height="10" transform="rotate(0,280,360)"/><rect x="275" y="385" width="10" height="10" transform="rotate(0,280,390)"/><rect x="275" y="395" width="10" height="10" transform="rotate(0,280,400)"/><rect x="275" y="435" width="10" height="10" transform="rotate(0,280,440)"/><rect x="275" y="455" width="10" height="10" transform="rotate(0,280,460)"/><rect x="275" y="465" width="10" height="10" transform="rotate(0,280,470)"/><rect x="285" y="35" width="10" height="10" transform="rotate(0,290,40)"/><rect x="285" y="45" width="10" height="10" transform="rotate(0,290,50)"/><rect x="285" y="85" width="10" height="10" transform="rotate(0,290,90)"/><rect x="285" y="95" width="10" height="10" transform="rotate(0,290,100)"/><rect x="285" y="105" width="10" height="10" transform="rotate(0,290,110)"/><rect x="285" y="135" width="10" height="10" transform="rotate(0,290,140)"/><rect x="285" y="145" width="10" height="10" transform="rotate(0,290,150)"/><rect x="285" y="155" width="10" height="10" transform="rotate(0,290,160)"/><rect x="285" y="165" width="10" height="10" transform="rotate(0,290,170)"/><rect x="285" y="185" width="10" height="10" transform="rotate(0,290,190)"/><rect x="285" y="205" width="10" height="10" transform="rotate(0,290,210)"/><rect x="285" y="215" width="10" height="10" transform="rotate(0,290,220)"/><rect x="285" y="225" width="10" height="10" transform="rotate(0,290,230)"/><rect x="285" y="235" width="10" height="10" transform="rotate(0,290,240)"/><rect x="285" y="285" width="10" height="10" transform="rotate(0,290,290)"/><rect x="285" y="295" width="10" height="10" transform="rotate(0,290,300)"/><rect x="285" y="315" width="10" height="10" transform="rotate(0,290,320)"/><rect x="285" y="335" width="10" height="10" transform="rotate(0,290,340)"/><rect x="285" y="345" width="10" height="10" transform="rotate(0,290,350)"/><rect x="285" y="365" width="10" height="10" transform="rotate(0,290,370)"/><rect x="285" y="375" width="10" height="10" transform="rotate(0,290,380)"/><rect x="285" y="425" width="10" height="10" transform="rotate(0,290,430)"/><rect x="295" y="45" width="10" height="10" transform="rotate(0,300,50)"/><rect x="295" y="65" width="10" height="10" transform="rotate(0,300,70)"/><rect x="295" y="95" width="10" height="10" transform="rotate(0,300,100)"/><rect x="295" y="105" width="10" height="10" transform="rotate(0,300,110)"/><rect x="295" y="115" width="10" height="10" transform="rotate(0,300,120)"/><rect x="295" y="125" width="10" height="10" transform="rotate(0,300,130)"/><rect x="295" y="135" width="10" height="10" transform="rotate(0,300,140)"/><rect x="295" y="145" width="10" height="10" transform="rotate(0,300,150)"/><rect x="295" y="155" width="10" height="10" transform="rotate(0,300,160)"/><rect x="295" y="195" width="10" height="10" transform="rotate(0,300,200)"/><rect x="295" y="215" width="10" height="10" transform="rotate(0,300,220)"/><rect x="295" y="275" width="10" height="10" transform="rotate(0,300,280)"/><rect x="295" y="295" width="10" height="10" transform="rotate(0,300,300)"/><rect x="295" y="315" width="10" height="10" transform="rotate(0,300,320)"/><rect x="295" y="345" width="10" height="10" transform="rotate(0,300,350)"/><rect x="295" y="375" width="10" height="10" transform="rotate(0,300,380)"/><rect x="295" y="385" width="10" height="10" transform="rotate(0,300,390)"/><rect x="295" y="395" width="10" height="10" transform="rotate(0,300,400)"/><rect x="295" y="425" width="10" height="10" transform="rotate(0,300,430)"/><rect x="295" y="435" width="10" height="10" transform="rotate(0,300,440)"/><rect x="295" y="445" width="10" height="10" transform="rotate(0,300,450)"/><rect x="295" y="455" width="10" height="10" transform="rotate(0,300,460)"/><rect x="295" y="465" width="10" height="10" transform="rotate(0,300,470)"/><rect x="305" y="25" width="10" height="10" transform="rotate(0,310,30)"/><rect x="305" y="65" width="10" height="10" transform="rotate(0,310,70)"/><rect x="305" y="75" width="10" height="10" transform="rotate(0,310,80)"/><rect x="305" y="85" width="10" height="10" transform="rotate(0,310,90)"/><rect x="305" y="95" width="10" height="10" transform="rotate(0,310,100)"/><rect x="305" y="105" width="10" height="10" transform="rotate(0,310,110)"/><rect x="305" y="115" width="10" height="10" transform="rotate(0,310,120)"/><rect x="305" y="135" width="10" height="10" transform="rotate(0,310,140)"/><rect x="305" y="165" width="10" height="10" transform="rotate(0,310,170)"/><rect x="305" y="195" width="10" height="10" transform="rotate(0,310,200)"/><rect x="305" y="215" width="10" height="10" transform="rotate(0,310,220)"/><rect x="305" y="235" width="10" height="10" transform="rotate(0,310,240)"/><rect x="305" y="255" width="10" height="10" transform="rotate(0,310,260)"/><rect x="305" y="265" width="10" height="10" transform="rotate(0,310,270)"/><rect x="305" y="285" width="10" height="10" transform="rotate(0,310,290)"/><rect x="305" y="295" width="10" height="10" transform="rotate(0,310,300)"/><rect x="305" y="315" width="10" height="10" transform="rotate(0,310,320)"/><rect x="305" y="325" width="10" height="10" transform="rotate(0,310,330)"/><rect x="305" y="335" width="10" height="10" transform="rotate(0,310,340)"/><rect x="305" y="345" width="10" height="10" transform="rotate(0,310,350)"/><rect x="305" y="395" width="10" height="10" transform="rotate(0,310,400)"/><rect x="305" y="415" width="10" height="10" transform="rotate(0,310,420)"/><rect x="305" y="425" width="10" height="10" transform="rotate(0,310,430)"/><rect x="305" y="455" width="10" height="10" transform="rotate(0,310,460)"/><rect x="305" y="465" width="10" height="10" transform="rotate(0,310,470)"/><rect x="315" y="35" width="10" height="10" transform="rotate(0,320,40)"/><rect x="315" y="55" width="10" height="10" transform="rotate(0,320,60)"/><rect x="315" y="65" width="10" height="10" transform="rotate(0,320,70)"/><rect x="315" y="105" width="10" height="10" transform="rotate(0,320,110)"/><rect x="315" y="125" width="10" height="10" transform="rotate(0,320,130)"/><rect x="315" y="145" width="10" height="10" transform="rotate(0,320,150)"/><rect x="315" y="195" width="10" height="10" transform="rotate(0,320,200)"/><rect x="315" y="205" width="10" height="10" transform="rotate(0,320,210)"/><rect x="315" y="215" width="10" height="10" transform="rotate(0,320,220)"/><rect x="315" y="225" width="10" height="10" transform="rotate(0,320,230)"/><rect x="315" y="245" width="10" height="10" transform="rotate(0,320,250)"/><rect x="315" y="275" width="10" height="10" transform="rotate(0,320,280)"/><rect x="315" y="285" width="10" height="10" transform="rotate(0,320,290)"/><rect x="315" y="295" width="10" height="10" transform="rotate(0,320,300)"/><rect x="315" y="315" width="10" height="10" transform="rotate(0,320,320)"/><rect x="315" y="325" width="10" height="10" transform="rotate(0,320,330)"/><rect x="315" y="345" width="10" height="10" transform="rotate(0,320,350)"/><rect x="315" y="415" width="10" height="10" transform="rotate(0,320,420)"/><rect x="315" y="445" width="10" height="10" transform="rotate(0,320,450)"/><rect x="315" y="465" width="10" height="10" transform="rotate(0,320,470)"/><rect x="325" y="35" width="10" height="10" transform="rotate(0,330,40)"/><rect x="325" y="55" width="10" height="10" transform="rotate(0,330,60)"/><rect x="325" y="65" width="10" height="10" transform="rotate(0,330,70)"/><rect x="325" y="75" width="10" height="10" transform="rotate(0,330,80)"/><rect x="325" y="85" width="10" height="10" transform="rotate(0,330,90)"/><rect x="325" y="105" width="10" height="10" transform="rotate(0,330,110)"/><rect x="325" y="125" width="10" height="10" transform="rotate(0,330,130)"/><rect x="325" y="135" width="10" height="10" transform="rotate(0,330,140)"/><rect x="325" y="155" width="10" height="10" transform="rotate(0,330,160)"/><rect x="325" y="165" width="10" height="10" transform="rotate(0,330,170)"/><rect x="325" y="175" width="10" height="10" transform="rotate(0,330,180)"/><rect x="325" y="185" width="10" height="10" transform="rotate(0,330,190)"/><rect x="325" y="205" width="10" height="10" transform="rotate(0,330,210)"/><rect x="325" y="215" width="10" height="10" transform="rotate(0,330,220)"/><rect x="325" y="245" width="10" height="10" transform="rotate(0,330,250)"/><rect x="325" y="295" width="10" height="10" transform="rotate(0,330,300)"/><rect x="325" y="305" width="10" height="10" transform="rotate(0,330,310)"/><rect x="325" y="315" width="10" height="10" transform="rotate(0,330,320)"/><rect x="325" y="395" width="10" height="10" transform="rotate(0,330,400)"/><rect x="325" y="405" width="10" height="10" transform="rotate(0,330,410)"/><rect x="325" y="415" width="10" height="10" transform="rotate(0,330,420)"/><rect x="325" y="425" width="10" height="10" transform="rotate(0,330,430)"/><rect x="325" y="455" width="10" height="10" transform="rotate(0,330,460)"/><rect x="325" y="465" width="10" height="10" transform="rotate(0,330,470)"/><rect x="335" y="35" width="10" height="10" transform="rotate(0,340,40)"/><rect x="335" y="105" width="10" height="10" transform="rotate(0,340,110)"/><rect x="335" y="115" width="10" height="10" transform="rotate(0,340,120)"/><rect x="335" y="125" width="10" height="10" transform="rotate(0,340,130)"/><rect x="335" y="135" width="10" height="10" transform="rotate(0,340,140)"/><rect x="335" y="165" width="10" height="10" transform="rotate(0,340,170)"/><rect x="335" y="175" width="10" height="10" transform="rotate(0,340,180)"/><rect x="335" y="205" width="10" height="10" transform="rotate(0,340,210)"/><rect x="335" y="215" width="10" height="10" transform="rotate(0,340,220)"/><rect x="335" y="225" width="10" height="10" transform="rotate(0,340,230)"/><rect x="335" y="245" width="10" height="10" transform="rotate(0,340,250)"/><rect x="335" y="275" width="10" height="10" transform="rotate(0,340,280)"/><rect x="335" y="285" width="10" height="10" transform="rotate(0,340,290)"/><rect x="335" y="305" width="10" height="10" transform="rotate(0,340,310)"/><rect x="335" y="325" width="10" height="10" transform="rotate(0,340,330)"/><rect x="335" y="345" width="10" height="10" transform="rotate(0,340,350)"/><rect x="335" y="375" width="10" height="10" transform="rotate(0,340,380)"/><rect x="335" y="385" width="10" height="10" transform="rotate(0,340,390)"/><rect x="335" y="405" width="10" height="10" transform="rotate(0,340,410)"/><rect x="335" y="425" width="10" height="10" transform="rotate(0,340,430)"/><rect x="335" y="435" width="10" height="10" transform="rotate(0,340,440)"/><rect x="335" y="445" width="10" height="10" transform="rotate(0,340,450)"/><rect x="335" y="455" width="10" height="10" transform="rotate(0,340,460)"/><rect x="335" y="465" width="10" height="10" transform="rotate(0,340,470)"/><rect x="345" y="55" width="10" height="10" transform="rotate(0,350,60)"/><rect x="345" y="85" width="10" height="10" transform="rotate(0,350,90)"/><rect x="345" y="95" width="10" height="10" transform="rotate(0,350,100)"/><rect x="345" y="115" width="10" height="10" transform="rotate(0,350,120)"/><rect x="345" y="135" width="10" height="10" transform="rotate(0,350,140)"/><rect x="345" y="145" width="10" height="10" transform="rotate(0,350,150)"/><rect x="345" y="155" width="10" height="10" transform="rotate(0,350,160)"/><rect x="345" y="165" width="10" height="10" transform="rotate(0,350,170)"/><rect x="345" y="175" width="10" height="10" transform="rotate(0,350,180)"/><rect x="345" y="205" width="10" height="10" transform="rotate(0,350,210)"/><rect x="345" y="235" width="10" height="10" transform="rotate(0,350,240)"/><rect x="345" y="255" width="10" height="10" transform="rotate(0,350,260)"/><rect x="345" y="285" width="10" height="10" transform="rotate(0,350,290)"/><rect x="345" y="315" width="10" height="10" transform="rotate(0,350,320)"/><rect x="345" y="335" width="10" height="10" transform="rotate(0,350,340)"/><rect x="345" y="365" width="10" height="10" transform="rotate(0,350,370)"/><rect x="345" y="385" width="10" height="10" transform="rotate(0,350,390)"/><rect x="345" y="395" width="10" height="10" transform="rotate(0,350,400)"/><rect x="345" y="415" width="10" height="10" transform="rotate(0,350,420)"/><rect x="345" y="425" width="10" height="10" transform="rotate(0,350,430)"/><rect x="355" y="25" width="10" height="10" transform="rotate(0,360,30)"/><rect x="355" y="35" width="10" height="10" transform="rotate(0,360,40)"/><rect x="355" y="45" width="10" height="10" transform="rotate(0,360,50)"/><rect x="355" y="135" width="10" height="10" transform="rotate(0,360,140)"/><rect x="355" y="145" width="10" height="10" transform="rotate(0,360,150)"/><rect x="355" y="155" width="10" height="10" transform="rotate(0,360,160)"/><rect x="355" y="175" width="10" height="10" transform="rotate(0,360,180)"/><rect x="355" y="225" width="10" height="10" transform="rotate(0,360,230)"/><rect x="355" y="245" width="10" height="10" transform="rotate(0,360,250)"/><rect x="355" y="285" width="10" height="10" transform="rotate(0,360,290)"/><rect x="355" y="295" width="10" height="10" transform="rotate(0,360,300)"/><rect x="355" y="315" width="10" height="10" transform="rotate(0,360,320)"/><rect x="355" y="325" width="10" height="10" transform="rotate(0,360,330)"/><rect x="355" y="345" width="10" height="10" transform="rotate(0,360,350)"/><rect x="355" y="365" width="10" height="10" transform="rotate(0,360,370)"/><rect x="355" y="395" width="10" height="10" transform="rotate(0,360,400)"/><rect x="355" y="415" width="10" height="10" transform="rotate(0,360,420)"/><rect x="355" y="425" width="10" height="10" transform="rotate(0,360,430)"/><rect x="355" y="445" width="10" height="10" transform="rotate(0,360,450)"/><rect x="365" y="65" width="10" height="10" transform="rotate(0,370,70)"/><rect x="365" y="85" width="10" height="10" transform="rotate(0,370,90)"/><rect x="365" y="95" width="10" height="10" transform="rotate(0,370,100)"/><rect x="365" y="105" width="10" height="10" transform="rotate(0,370,110)"/><rect x="365" y="185" width="10" height="10" transform="rotate(0,370,190)"/><rect x="365" y="195" width="10" height="10" transform="rotate(0,370,200)"/><rect x="365" y="215" width="10" height="10" transform="rotate(0,370,220)"/><rect x="365" y="235" width="10" height="10" transform="rotate(0,370,240)"/><rect x="365" y="245" width="10" height="10" transform="rotate(0,370,250)"/><rect x="365" y="255" width="10" height="10" transform="rotate(0,370,260)"/><rect x="365" y="265" width="10" height="10" transform="rotate(0,370,270)"/><rect x="365" y="285" width="10" height="10" transform="rotate(0,370,290)"/><rect x="365" y="295" width="10" height="10" transform="rotate(0,370,300)"/><rect x="365" y="315" width="10" height="10" transform="rotate(0,370,320)"/><rect x="365" y="345" width="10" height="10" transform="rotate(0,370,350)"/><rect x="365" y="365" width="10" height="10" transform="rotate(0,370,370)"/><rect x="365" y="385" width="10" height="10" transform="rotate(0,370,390)"/><rect x="365" y="425" width="10" height="10" transform="rotate(0,370,430)"/><rect x="365" y="435" width="10" height="10" transform="rotate(0,370,440)"/><rect x="365" y="455" width="10" height="10" transform="rotate(0,370,460)"/><rect x="375" y="35" width="10" height="10" transform="rotate(0,380,40)"/><rect x="375" y="45" width="10" height="10" transform="rotate(0,380,50)"/><rect x="375" y="55" width="10" height="10" transform="rotate(0,380,60)"/><rect x="375" y="65" width="10" height="10" transform="rotate(0,380,70)"/><rect x="375" y="95" width="10" height="10" transform="rotate(0,380,100)"/><rect x="375" y="105" width="10" height="10" transform="rotate(0,380,110)"/><rect x="375" y="135" width="10" height="10" transform="rotate(0,380,140)"/><rect x="375" y="145" width="10" height="10" transform="rotate(0,380,150)"/><rect x="375" y="165" width="10" height="10" transform="rotate(0,380,170)"/><rect x="375" y="195" width="10" height="10" transform="rotate(0,380,200)"/><rect x="375" y="245" width="10" height="10" transform="rotate(0,380,250)"/><rect x="375" y="295" width="10" height="10" transform="rotate(0,380,300)"/><rect x="375" y="305" width="10" height="10" transform="rotate(0,380,310)"/><rect x="375" y="325" width="10" height="10" transform="rotate(0,380,330)"/><rect x="375" y="335" width="10" height="10" transform="rotate(0,380,340)"/><rect x="375" y="345" width="10" height="10" transform="rotate(0,380,350)"/><rect x="375" y="355" width="10" height="10" transform="rotate(0,380,360)"/><rect x="375" y="375" width="10" height="10" transform="rotate(0,380,380)"/><rect x="375" y="395" width="10" height="10" transform="rotate(0,380,400)"/><rect x="375" y="405" width="10" height="10" transform="rotate(0,380,410)"/><rect x="375" y="435" width="10" height="10" transform="rotate(0,380,440)"/><rect x="375" y="445" width="10" height="10" transform="rotate(0,380,450)"/><rect x="385" y="25" width="10" height="10" transform="rotate(0,390,30)"/><rect x="385" y="55" width="10" height="10" transform="rotate(0,390,60)"/><rect x="385" y="65" width="10" height="10" transform="rotate(0,390,70)"/><rect x="385" y="85" width="10" height="10" transform="rotate(0,390,90)"/><rect x="385" y="115" width="10" height="10" transform="rotate(0,390,120)"/><rect x="385" y="125" width="10" height="10" transform="rotate(0,390,130)"/><rect x="385" y="145" width="10" height="10" transform="rotate(0,390,150)"/><rect x="385" y="155" width="10" height="10" transform="rotate(0,390,160)"/><rect x="385" y="175" width="10" height="10" transform="rotate(0,390,180)"/><rect x="385" y="225" width="10" height="10" transform="rotate(0,390,230)"/><rect x="385" y="235" width="10" height="10" transform="rotate(0,390,240)"/><rect x="385" y="245" width="10" height="10" transform="rotate(0,390,250)"/><rect x="385" y="255" width="10" height="10" transform="rotate(0,390,260)"/><rect x="385" y="265" width="10" height="10" transform="rotate(0,390,270)"/><rect x="385" y="305" width="10" height="10" transform="rotate(0,390,310)"/><rect x="385" y="315" width="10" height="10" transform="rotate(0,390,320)"/><rect x="385" y="335" width="10" height="10" transform="rotate(0,390,340)"/><rect x="385" y="345" width="10" height="10" transform="rotate(0,390,350)"/><rect x="385" y="375" width="10" height="10" transform="rotate(0,390,380)"/><rect x="385" y="385" width="10" height="10" transform="rotate(0,390,390)"/><rect x="385" y="395" width="10" height="10" transform="rotate(0,390,400)"/><rect x="385" y="405" width="10" height="10" transform="rotate(0,390,410)"/><rect x="385" y="415" width="10" height="10" transform="rotate(0,390,420)"/><rect x="385" y="425" width="10" height="10" transform="rotate(0,390,430)"/><rect x="385" y="435" width="10" height="10" transform="rotate(0,390,440)"/><rect x="385" y="465" width="10" height="10" transform="rotate(0,390,470)"/><rect x="395" y="105" width="10" height="10" transform="rotate(0,400,110)"/><rect x="395" y="115" width="10" height="10" transform="rotate(0,400,120)"/><rect x="395" y="125" width="10" height="10" transform="rotate(0,400,130)"/><rect x="395" y="165" width="10" height="10" transform="rotate(0,400,170)"/><rect x="395" y="175" width="10" height="10" transform="rotate(0,400,180)"/><rect x="395" y="185" width="10" height="10" transform="rotate(0,400,190)"/><rect x="395" y="205" width="10" height="10" transform="rotate(0,400,210)"/><rect x="395" y="215" width="10" height="10" transform="rotate(0,400,220)"/><rect x="395" y="225" width="10" height="10" transform="rotate(0,400,230)"/><rect x="395" y="265" width="10" height="10" transform="rotate(0,400,270)"/><rect x="395" y="275" width="10" height="10" transform="rotate(0,400,280)"/><rect x="395" y="295" width="10" height="10" transform="rotate(0,400,300)"/><rect x="395" y="315" width="10" height="10" transform="rotate(0,400,320)"/><rect x="395" y="325" width="10" height="10" transform="rotate(0,400,330)"/><rect x="395" y="345" width="10" height="10" transform="rotate(0,400,350)"/><rect x="395" y="375" width="10" height="10" transform="rotate(0,400,380)"/><rect x="395" y="385" width="10" height="10" transform="rotate(0,400,390)"/><rect x="395" y="425" width="10" height="10" transform="rotate(0,400,430)"/><rect x="395" y="435" width="10" height="10" transform="rotate(0,400,440)"/><rect x="395" y="445" width="10" height="10" transform="rotate(0,400,450)"/><rect x="395" y="465" width="10" height="10" transform="rotate(0,400,470)"/><rect x="405" y="105" width="10" height="10" transform="rotate(0,410,110)"/><rect x="405" y="125" width="10" height="10" transform="rotate(0,410,130)"/><rect x="405" y="145" width="10" height="10" transform="rotate(0,410,150)"/><rect x="405" y="175" width="10" height="10" transform="rotate(0,410,180)"/><rect x="405" y="185" width="10" height="10" transform="rotate(0,410,190)"/><rect x="405" y="205" width="10" height="10" transform="rotate(0,410,210)"/><rect x="405" y="215" width="10" height="10" transform="rotate(0,410,220)"/><rect x="405" y="225" width="10" height="10" transform="rotate(0,410,230)"/><rect x="405" y="245" width="10" height="10" transform="rotate(0,410,250)"/><rect x="405" y="265" width="10" height="10" transform="rotate(0,410,270)"/><rect x="405" y="275" width="10" height="10" transform="rotate(0,410,280)"/><rect x="405" y="285" width="10" height="10" transform="rotate(0,410,290)"/><rect x="405" y="295" width="10" height="10" transform="rotate(0,410,300)"/><rect x="405" y="355" width="10" height="10" transform="rotate(0,410,360)"/><rect x="405" y="385" width="10" height="10" transform="rotate(0,410,390)"/><rect x="405" y="405" width="10" height="10" transform="rotate(0,410,410)"/><rect x="405" y="425" width="10" height="10" transform="rotate(0,410,430)"/><rect x="405" y="445" width="10" height="10" transform="rotate(0,410,450)"/><rect x="405" y="455" width="10" height="10" transform="rotate(0,410,460)"/><rect x="415" y="115" width="10" height="10" transform="rotate(0,420,120)"/><rect x="415" y="125" width="10" height="10" transform="rotate(0,420,130)"/><rect x="415" y="135" width="10" height="10" transform="rotate(0,420,140)"/><rect x="415" y="175" width="10" height="10" transform="rotate(0,420,180)"/><rect x="415" y="195" width="10" height="10" transform="rotate(0,420,200)"/><rect x="415" y="205" width="10" height="10" transform="rotate(0,420,210)"/><rect x="415" y="225" width="10" height="10" transform="rotate(0,420,230)"/><rect x="415" y="265" width="10" height="10" transform="rotate(0,420,270)"/><rect x="415" y="285" width="10" height="10" transform="rotate(0,420,290)"/><rect x="415" y="325" width="10" height="10" transform="rotate(0,420,330)"/><rect x="415" y="355" width="10" height="10" transform="rotate(0,420,360)"/><rect x="415" y="375" width="10" height="10" transform="rotate(0,420,380)"/><rect x="415" y="385" width="10" height="10" transform="rotate(0,420,390)"/><rect x="415" y="425" width="10" height="10" transform="rotate(0,420,430)"/><rect x="415" y="435" width="10" height="10" transform="rotate(0,420,440)"/><rect x="415" y="445" width="10" height="10" transform="rotate(0,420,450)"/><rect x="415" y="455" width="10" height="10" transform="rotate(0,420,460)"/><rect x="415" y="465" width="10" height="10" transform="rotate(0,420,470)"/><rect x="425" y="115" width="10" height="10" transform="rotate(0,430,120)"/><rect x="425" y="125" width="10" height="10" transform="rotate(0,430,130)"/><rect x="425" y="175" width="10" height="10" transform="rotate(0,430,180)"/><rect x="425" y="205" width="10" height="10" transform="rotate(0,430,210)"/><rect x="425" y="215" width="10" height="10" transform="rotate(0,430,220)"/><rect x="425" y="225" width="10" height="10" transform="rotate(0,430,230)"/><rect x="425" y="235" width="10" height="10" transform="rotate(0,430,240)"/><rect x="425" y="245" width="10" height="10" transform="rotate(0,430,250)"/><rect x="425" y="255" width="10" height="10" transform="rotate(0,430,260)"/><rect x="425" y="265" width="10" height="10" transform="rotate(0,430,270)"/><rect x="425" y="275" width="10" height="10" transform="rotate(0,430,280)"/><rect x="425" y="285" width="10" height="10" transform="rotate(0,430,290)"/><rect x="425" y="315" width="10" height="10" transform="rotate(0,430,320)"/><rect x="425" y="325" width="10" height="10" transform="rotate(0,430,330)"/><rect x="425" y="365" width="10" height="10" transform="rotate(0,430,370)"/><rect x="425" y="385" width="10" height="10" transform="rotate(0,430,390)"/><rect x="425" y="395" width="10" height="10" transform="rotate(0,430,400)"/><rect x="425" y="405" width="10" height="10" transform="rotate(0,430,410)"/><rect x="425" y="415" width="10" height="10" transform="rotate(0,430,420)"/><rect x="425" y="425" width="10" height="10" transform="rotate(0,430,430)"/><rect x="425" y="455" width="10" height="10" transform="rotate(0,430,460)"/><rect x="435" y="115" width="10" height="10" transform="rotate(0,440,120)"/><rect x="435" y="145" width="10" height="10" transform="rotate(0,440,150)"/><rect x="435" y="155" width="10" height="10" transform="rotate(0,440,160)"/><rect x="435" y="175" width="10" height="10" transform="rotate(0,440,180)"/><rect x="435" y="185" width="10" height="10" transform="rotate(0,440,190)"/><rect x="435" y="205" width="10" height="10" transform="rotate(0,440,210)"/><rect x="435" y="255" width="10" height="10" transform="rotate(0,440,260)"/><rect x="435" y="265" width="10" height="10" transform="rotate(0,440,270)"/><rect x="435" y="275" width="10" height="10" transform="rotate(0,440,280)"/><rect x="435" y="315" width="10" height="10" transform="rotate(0,440,320)"/><rect x="435" y="325" width="10" height="10" transform="rotate(0,440,330)"/><rect x="435" y="335" width="10" height="10" transform="rotate(0,440,340)"/><rect x="435" y="345" width="10" height="10" transform="rotate(0,440,350)"/><rect x="435" y="415" width="10" height="10" transform="rotate(0,440,420)"/><rect x="435" y="425" width="10" height="10" transform="rotate(0,440,430)"/><rect x="435" y="445" width="10" height="10" transform="rotate(0,440,450)"/><rect x="445" y="115" width="10" height="10" transform="rotate(0,450,120)"/><rect x="445" y="125" width="10" height="10" transform="rotate(0,450,130)"/><rect x="445" y="165" width="10" height="10" transform="rotate(0,450,170)"/><rect x="445" y="185" width="10" height="10" transform="rotate(0,450,190)"/><rect x="445" y="195" width="10" height="10" transform="rotate(0,450,200)"/><rect x="445" y="205" width="10" height="10" transform="rotate(0,450,210)"/><rect x="445" y="235" width="10" height="10" transform="rotate(0,450,240)"/><rect x="445" y="265" width="10" height="10" transform="rotate(0,450,270)"/><rect x="445" y="285" width="10" height="10" transform="rotate(0,450,290)"/><rect x="445" y="305" width="10" height="10" transform="rotate(0,450,310)"/><rect x="445" y="315" width="10" height="10" transform="rotate(0,450,320)"/><rect x="445" y="335" width="10" height="10" transform="rotate(0,450,340)"/><rect x="445" y="345" width="10" height="10" transform="rotate(0,450,350)"/><rect x="445" y="355" width="10" height="10" transform="rotate(0,450,360)"/><rect x="445" y="375" width="10" height="10" transform="rotate(0,450,380)"/><rect x="445" y="385" width="10" height="10" transform="rotate(0,450,390)"/><rect x="445" y="395" width="10" height="10" transform="rotate(0,450,400)"/><rect x="445" y="405" width="10" height="10" transform="rotate(0,450,410)"/><rect x="445" y="425" width="10" height="10" transform="rotate(0,450,430)"/><rect x="445" y="435" width="10" height="10" transform="rotate(0,450,440)"/><rect x="445" y="465" width="10" height="10" transform="rotate(0,450,470)"/><rect x="455" y="105" width="10" height="10" transform="rotate(0,460,110)"/><rect x="455" y="115" width="10" height="10" transform="rotate(0,460,120)"/><rect x="455" y="125" width="10" height="10" transform="rotate(0,460,130)"/><rect x="455" y="145" width="10" height="10" transform="rotate(0,460,150)"/><rect x="455" y="155" width="10" height="10" transform="rotate(0,460,160)"/><rect x="455" y="165" width="10" height="10" transform="rotate(0,460,170)"/><rect x="455" y="175" width="10" height="10" transform="rotate(0,460,180)"/><rect x="455" y="185" width="10" height="10" transform="rotate(0,460,190)"/><rect x="455" y="195" width="10" height="10" transform="rotate(0,460,200)"/><rect x="455" y="205" width="10" height="10" transform="rotate(0,460,210)"/><rect x="455" y="215" width="10" height="10" transform="rotate(0,460,220)"/><rect x="455" y="235" width="10" height="10" transform="rotate(0,460,240)"/><rect x="455" y="245" width="10" height="10" transform="rotate(0,460,250)"/><rect x="455" y="265" width="10" height="10" transform="rotate(0,460,270)"/><rect x="455" y="275" width="10" height="10" transform="rotate(0,460,280)"/><rect x="455" y="295" width="10" height="10" transform="rotate(0,460,300)"/><rect x="455" y="325" width="10" height="10" transform="rotate(0,460,330)"/><rect x="455" y="345" width="10" height="10" transform="rotate(0,460,350)"/><rect x="455" y="375" width="10" height="10" transform="rotate(0,460,380)"/><rect x="455" y="385" width="10" height="10" transform="rotate(0,460,390)"/><rect x="455" y="395" width="10" height="10" transform="rotate(0,460,400)"/><rect x="455" y="445" width="10" height="10" transform="rotate(0,460,450)"/><rect x="465" y="115" width="10" height="10" transform="rotate(0,470,120)"/><rect x="465" y="135" width="10" height="10" transform="rotate(0,470,140)"/><rect x="465" y="145" width="10" height="10" transform="rotate(0,470,150)"/><rect x="465" y="155" width="10" height="10" transform="rotate(0,470,160)"/><rect x="465" y="185" width="10" height="10" transform="rotate(0,470,190)"/><rect x="465" y="195" width="10" height="10" transform="rotate(0,470,200)"/><rect x="465" y="205" width="10" height="10" transform="rotate(0,470,210)"/><rect x="465" y="275" width="10" height="10" transform="rotate(0,470,280)"/><rect x="465" y="285" width="10" height="10" transform="rotate(0,470,290)"/><rect x="465" y="295" width="10" height="10" transform="rotate(0,470,300)"/><rect x="465" y="315" width="10" height="10" transform="rotate(0,470,320)"/><rect x="465" y="325" width="10" height="10" transform="rotate(0,470,330)"/><rect x="465" y="335" width="10" height="10" transform="rotate(0,470,340)"/><rect x="465" y="365" width="10" height="10" transform="rotate(0,470,370)"/><rect x="465" y="375" width="10" height="10" transform="rotate(0,470,380)"/><rect x="465" y="395" width="10" height="10" transform="rotate(0,470,400)"/><rect x="465" y="405" width="10" height="10" transform="rotate(0,470,410)"/><rect x="465" y="435" width="10" height="10" transform="rotate(0,470,440)"/><rect x="465" y="455" width="10" height="10" transform="rotate(0,470,460)"/></clipPath><clipPath id="clip-path-corners-square-color-0-0"><path clip-rule="evenodd" d="M 25 25v 70h 70v -70zM 35 35h 50v 50h -50z" transform="rotate(0,60,60)"/></clipPath><clipPath id="clip-path-corners-dot-color-0-0"><rect x="45" y="45" width="30" height="30" transform="rotate(0,60,60)"/></clipPath><clipPath id="clip-path-corners-square-color-1-0"><path clip-rule="evenodd" d="M 405 25v 70h 70v -70zM 415 35h 50v 50h -50z" transform="rotate(90,440,60)"/></clipPath><clipPath id="clip-path-corners-dot-color-1-0"><rect x="425" y="45" width="30" height="30" transform="rotate(90,440,60)"/></clipPath><clipPath id="clip-path-corners-square-color-0-1"><path clip-rule="evenodd" d="M 25 405v 70h 70v -70zM 35 415h 50v 50h -50z" transform="rotate(-90,60,440)"/></clipPath><clipPath id="clip-path-corners-dot-color-0-1"><rect x="45" y="425" width="30" height="30" transform="rotate(-90,60,440)"/></clipPath></defs><rect x="0" y="0" height="500" width="500" clip-path="url('#clip-path-background-color')" fill="#fff"/><rect x="0" y="0" height="500" width="500" clip-path="url('#clip-path-dot-color')" fill="#000000"/><rect x="25" y="25" height="70" width="70" clip-path="url('#clip-path-corners-square-color-0-0')" fill="#000000"/><rect x="45" y="45" height="30" width="30" clip-path="url('#clip-path-corners-dot-color-0-0')" fill="#000000"/><rect x="405" y="25" height="70" width="70" clip-path="url('#clip-path-corners-square-color-1-0')" fill="#000000"/><rect x="425" y="45" height="30" width="30" clip-path="url('#clip-path-corners-dot-color-1-0')" fill="#000000"/><rect x="25" y="405" height="70" width="70" clip-path="url('#clip-path-corners-square-color-0-1')" fill="#000000"/><rect x="45" y="425" height="30" width="30" clip-path="url('#clip-path-corners-dot-color-0-1')" fill="#000000"/></svg>